<svg xmlns="http://www.w3.org/2000/svg" viewBox="0 0 100 100" width="256" height="256">
  <rect x="1" y="1" width="98" height="98" rx="22" fill="#F8FAFC" stroke="#E2E8F0" stroke-width="2"/>

  <mask id="half-cut-unmuted">
    <rect x="0" y="0" width="100" height="100" fill="white" />
    <circle cx="50" cy="50" r="30" fill="black" />
    <rect x="50" y="0" width="50" height="100" fill="black" />
  </mask>

  <g mask="url(#half-cut-unmuted)" fill="#64748B">
    <rect x="2" y="42" width="96" height="16" rx="4" transform="rotate(0 50 50)" />
    <rect x="2" y="42" width="96" height="16" rx="4" transform="rotate(60 50 50)" />
    <rect x="2" y="42" width="96" height="16" rx="4" transform="rotate(120 50 50)" />
    <circle cx="50" cy="50" r="40" />
  </g>

  <path d="M44,39 h-8 a3,3 0 0,0 -3,3 v16 a3,3 0 0,0 3,3 h8 l11,9.5 a3,3 0 0,0 4.5,-2.5 v-36 a3,3 0 0,0 -4.5,-2.5 z" fill="#1E293B" />

  <path d="M67,40 A14,14 0 0,1 67,60" stroke="#0EA5E9" stroke-width="4.5" stroke-linecap="round" fill="none" />
  <path d="M75,32 A24,24 0 0,1 75,68" stroke="#0EA5E9" stroke-width="4.5" stroke-linecap="round" fill="none" />
</svg>
